<svg id="Layer_1" data-name="Layer 1" xmlns="http://www.w3.org/2000/svg" viewBox="0 0 150 150.7"><path d="M147 32.8A171.5 171.5 0 00135.8 0a176.8 176.8 0 00-26.3 12.6 126 126 0 00-28.7 23c1.8 2.4 3.6 4.9 5.3 7.5a88.9 88.9 0 017.2 13.6 90.3 90.3 0 015.7 21l21.5-51.3 8.1 3.1-28.5 68.6a123.9 123.9 0 01-1.9 17.8 158.4 158.4 0 01-8.1 29.4 137.6 137.6 0 0013.6-7.8 123 123 0 0022.2-18.1 84.8 84.8 0 0017.9-26.6 85.7 85.7 0 006.2-31.4 120 120 0 00-3-28.6" fill="#8ebe3f"/><path d="M85.1 60.1a71.2 71.2 0 00-6.4-12.2C68 31.2 52.1 19.5 40.5 12.6S14.6 1.3 14.2 1.1s0 0-.5 0A162.8 162.8 0 003 32.8a120 120 0 00-3 28.6 85.7 85.7 0 006.2 31.4 84.8 84.8 0 0017.9 26.6 123 123 0 0022.2 18.1 148.8 148.8 0 0025.4 13.2L25.9 40.3l4.1-1.7 4.2-1.6 45.6 110.3a145 145 0 009.7-32.9c3.6-20.5 2.1-38.7-4.4-54.3" fill="#8ebe3f"/></svg>